<svg id="SvgjsSvg1245" width="1325" height="554" xmlns="http://www.w3.org/2000/svg" version="1.1" xmlns:xlink="http://www.w3.org/1999/xlink" xmlns:svgjs="http://svgjs.com/svgjs"><defs id="SvgjsDefs1246"><marker id="SvgjsMarker1290" markerWidth="16" markerHeight="12" refX="16" refY="6" viewBox="0 0 16 12" orient="auto" markerUnits="userSpaceOnUse" stroke-dasharray="0,0"><path id="SvgjsPath1291" d="M0,2 L14,6 L0,11 L0,2" fill="#323232" stroke="#323232" stroke-width="2"></path></marker><marker id="SvgjsMarker1298" markerWidth="16" markerHeight="12" refX="16" refY="6" viewBox="0 0 16 12" orient="auto" markerUnits="userSpaceOnUse" stroke-dasharray="0,0"><path id="SvgjsPath1299" d="M0,2 L14,6 L0,11 L0,2" fill="#323232" stroke="#323232" stroke-width="2"></path></marker><marker id="SvgjsMarker1302" markerWidth="16" markerHeight="12" refX="16" refY="6" viewBox="0 0 16 12" orient="auto" markerUnits="userSpaceOnUse" stroke-dasharray="0,0"><path id="SvgjsPath1303" d="M0,2 L14,6 L0,11 L0,2" fill="#323232" stroke="#323232" stroke-width="2"></path></marker><marker id="SvgjsMarker1310" markerWidth="16" markerHeight="12" refX="16" refY="6" viewBox="0 0 16 12" orient="auto" markerUnits="userSpaceOnUse" stroke-dasharray="0,0"><path id="SvgjsPath1311" d="M0,2 L14,6 L0,11 L0,2" fill="#323232" stroke="#323232" stroke-width="2"></path></marker><marker id="SvgjsMarker1314" markerWidth="16" markerHeight="12" refX="16" refY="6" viewBox="0 0 16 12" orient="auto" markerUnits="userSpaceOnUse" stroke-dasharray="0,0"><path id="SvgjsPath1315" d="M0,2 L14,6 L0,11 L0,2" fill="#323232" stroke="#323232" stroke-width="2"></path></marker><marker id="SvgjsMarker1330" markerWidth="16" markerHeight="12" refX="16" refY="6" viewBox="0 0 16 12" orient="auto" markerUnits="userSpaceOnUse" stroke-dasharray="0,0"><path id="SvgjsPath1331" d="M0,2 L14,6 L0,11 L0,2" fill="#323232" stroke="#323232" stroke-width="2"></path></marker><marker id="SvgjsMarker1338" markerWidth="16" markerHeight="12" refX="16" refY="6" viewBox="0 0 16 12" orient="auto" markerUnits="userSpaceOnUse" stroke-dasharray="0,0"><path id="SvgjsPath1339" d="M0,2 L14,6 L0,11 L0,2" fill="#323232" stroke="#323232" stroke-width="2"></path></marker><marker id="SvgjsMarker1342" markerWidth="16" markerHeight="12" refX="16" refY="6" viewBox="0 0 16 12" orient="auto" markerUnits="userSpaceOnUse" stroke-dasharray="0,0"><path id="SvgjsPath1343" d="M0,2 L14,6 L0,11 L0,2" fill="#323232" stroke="#323232" stroke-width="2"></path></marker><marker id="SvgjsMarker1354" markerWidth="16" markerHeight="12" refX="16" refY="6" viewBox="0 0 16 12" orient="auto" markerUnits="userSpaceOnUse" stroke-dasharray="0,0"><path id="SvgjsPath1355" d="M0,2 L14,6 L0,11 L0,2" fill="#323232" stroke="#323232" stroke-width="2"></path></marker><marker id="SvgjsMarker1358" markerWidth="16" markerHeight="12" refX="16" refY="6" viewBox="0 0 16 12" orient="auto" markerUnits="userSpaceOnUse" stroke-dasharray="0,0"><path id="SvgjsPath1359" d="M0,2 L14,6 L0,11 L0,2" fill="#323232" stroke="#323232" stroke-width="2"></path></marker><marker id="SvgjsMarker1362" markerWidth="16" markerHeight="12" refX="16" refY="6" viewBox="0 0 16 12" orient="auto" markerUnits="userSpaceOnUse" stroke-dasharray="0,0"><path id="SvgjsPath1363" d="M0,2 L14,6 L0,11 L0,2" fill="#323232" stroke="#323232" stroke-width="2"></path></marker><marker id="SvgjsMarker1398" markerWidth="16" markerHeight="12" refX="16" refY="6" viewBox="0 0 16 12" orient="auto" markerUnits="userSpaceOnUse" stroke-dasharray="0,0"><path id="SvgjsPath1399" d="M0,2 L14,6 L0,11 L0,2" fill="#323232" stroke="#323232" stroke-width="2"></path></marker><marker id="SvgjsMarker1402" markerWidth="16" markerHeight="12" refX="16" refY="6" viewBox="0 0 16 12" orient="auto" markerUnits="userSpaceOnUse" stroke-dasharray="0,0"><path id="SvgjsPath1403" d="M0,2 L14,6 L0,11 L0,2" fill="#323232" stroke="#323232" stroke-width="2"></path></marker><marker id="SvgjsMarker1406" markerWidth="16" markerHeight="12" refX="16" refY="6" viewBox="0 0 16 12" orient="auto" markerUnits="userSpaceOnUse" stroke-dasharray="0,0"><path id="SvgjsPath1407" d="M0,2 L14,6 L0,11 L0,2" fill="#323232" stroke="#323232" stroke-width="2"></path></marker><marker id="SvgjsMarker1416" markerWidth="16" markerHeight="12" refX="16" refY="6" viewBox="0 0 16 12" orient="auto" markerUnits="userSpaceOnUse" stroke-dasharray="0,0"><path id="SvgjsPath1417" d="M0,2 L14,6 L0,11 L0,2" fill="#323232" stroke="#323232" stroke-width="2"></path></marker><marker id="SvgjsMarker1426" markerWidth="16" markerHeight="12" refX="16" refY="6" viewBox="0 0 16 12" orient="auto" markerUnits="userSpaceOnUse" stroke-dasharray="0,0"><path id="SvgjsPath1427" d="M0,2 L14,6 L0,11 L0,2" fill="#323232" stroke="#323232" stroke-width="2"></path></marker><marker id="SvgjsMarker1434" markerWidth="16" markerHeight="12" refX="16" refY="6" viewBox="0 0 16 12" orient="auto" markerUnits="userSpaceOnUse" stroke-dasharray="0,0"><path id="SvgjsPath1435" d="M0,2 L14,6 L0,11 L0,2" fill="#323232" stroke="#323232" stroke-width="2"></path></marker><marker id="SvgjsMarker1442" markerWidth="16" markerHeight="12" refX="16" refY="6" viewBox="0 0 16 12" orient="auto" markerUnits="userSpaceOnUse" stroke-dasharray="0,0"><path id="SvgjsPath1443" d="M0,2 L14,6 L0,11 L0,2" fill="#323232" stroke="#323232" stroke-width="2"></path></marker><marker id="SvgjsMarker1446" markerWidth="16" markerHeight="12" refX="16" refY="6" viewBox="0 0 16 12" orient="auto" markerUnits="userSpaceOnUse" stroke-dasharray="0,0"><path id="SvgjsPath1447" d="M0,2 L14,6 L0,11 L0,2" fill="#323232" stroke="#323232" stroke-width="2"></path></marker><marker id="SvgjsMarker1478" markerWidth="16" markerHeight="12" refX="16" refY="6" viewBox="0 0 16 12" orient="auto" markerUnits="userSpaceOnUse" stroke-dasharray="0,0"><path id="SvgjsPath1479" d="M0,2 L14,6 L0,11 L0,2" fill="#323232" stroke="#323232" stroke-width="2"></path></marker><marker id="SvgjsMarker1482" markerWidth="16" markerHeight="12" refX="16" refY="6" viewBox="0 0 16 12" orient="auto" markerUnits="userSpaceOnUse" stroke-dasharray="0,0"><path id="SvgjsPath1483" d="M0,2 L14,6 L0,11 L0,2" fill="#323232" stroke="#323232" stroke-width="2"></path></marker></defs><rect id="SvgjsRect1247" width="1325" height="554" fill="#ffffff"></rect><g id="SvgjsG1248" transform="translate(149,63)"><path id="SvgjsPath1249" d="M 0 0L 74 0L 74 32L 0 32Z" stroke="rgba(50,50,50,1)" stroke-width="2" fill-opacity="1" fill="#ffffff"></path><g id="SvgjsG1250"><text id="SvgjsText1251" font-family="微软雅黑" text-anchor="middle" font-size="13px" width="54px" fill="#323232" font-weight="400" align="middle" anchor="middle" family="微软雅黑" size="13px" weight="400" font-style="" opacity="1" y="6.05" transform="rotate(0)"><tspan id="SvgjsTspan1252" dy="16" x="37"><tspan id="SvgjsTspan1253" style="text-decoration:;">master</tspan></tspan></text></g></g><g id="SvgjsG1254" transform="translate(149,213.5)"><path id="SvgjsPath1255" d="M 0 0L 74 0L 74 32L 0 32Z" stroke="rgba(50,50,50,1)" stroke-width="2" fill-opacity="1" fill="#ffffff"></path><g id="SvgjsG1256"><text id="SvgjsText1257" font-family="微软雅黑" text-anchor="middle" font-size="13px" width="54px" fill="#323232" font-weight="400" align="middle" anchor="middle" family="微软雅黑" size="13px" weight="400" font-style="" opacity="1" y="6.05" transform="rotate(0)"><tspan id="SvgjsTspan1258" dy="16" x="37"><tspan id="SvgjsTspan1259" style="text-decoration:;">dev</tspan></tspan></text></g></g><g id="SvgjsG1260" transform="translate(149,364)"><path id="SvgjsPath1261" d="M 0 0L 74 0L 74 32L 0 32Z" stroke="rgba(50,50,50,1)" stroke-width="2" fill-opacity="1" fill="#ffffff"></path><g id="SvgjsG1262"><text id="SvgjsText1263" font-family="微软雅黑" text-anchor="middle" font-size="13px" width="54px" fill="#323232" font-weight="400" align="middle" anchor="middle" family="微软雅黑" size="13px" weight="400" font-style="" opacity="1" y="6.05" transform="rotate(0)"><tspan id="SvgjsTspan1264" dy="16" x="37"><tspan id="SvgjsTspan1265" style="text-decoration:;">refactor</tspan></tspan></text></g></g><g id="SvgjsG1266" transform="translate(25,63)"><path id="SvgjsPath1267" d="M 110 0Q 101 0 101 9L 101 82.25Q 101 91.25 88 91.25Q 101 91.25 101 100.25L 101 173.5Q 101 182.5 110 182.5" stroke="rgba(50,50,50,1)" stroke-width="2" fill="none"></path><path id="SvgjsPath1268" d="M 0 0L 110 0L 110 182.5L 0 182.5Z" stroke="none" fill="none"></path><g id="SvgjsG1269"><text id="SvgjsText1270" font-family="微软雅黑" text-anchor="end" font-size="13px" width="83px" fill="#323232" font-weight="400" align="middle" anchor="end" family="微软雅黑" size="13px" weight="400" font-style="" opacity="1" y="73.3" transform="rotate(0)"><tspan id="SvgjsTspan1271" dy="16" x="83"><tspan id="SvgjsTspan1272" style="text-decoration:;">快节奏迭代</tspan></tspan><tspan id="SvgjsTspan1273" dy="16" x="83"><tspan id="SvgjsTspan1274" style="text-decoration:;">（每周发版）</tspan></tspan></text></g></g><g id="SvgjsG1275" transform="translate(35,351.5)"><path id="SvgjsPath1276" d="M 100 0Q 91 0 91 5.7L 91 22.8Q 91 28.5 78 28.5Q 91 28.5 91 34.2L 91 51.3Q 91 57 100 57" stroke="rgba(50,50,50,1)" stroke-width="2" fill="none"></path><path id="SvgjsPath1277" d="M 0 0L 100 0L 100 57L 0 57Z" stroke="none" fill="none"></path><g id="SvgjsG1278"><text id="SvgjsText1279" font-family="微软雅黑" text-anchor="end" font-size="13px" width="73px" fill="#323232" font-weight="400" align="middle" anchor="end" family="微软雅黑" size="13px" weight="400" font-style="" opacity="1" y="10.55" transform="rotate(0)"><tspan id="SvgjsTspan1280" dy="16" x="73"><tspan id="SvgjsTspan1281" style="text-decoration:;">缓慢重构</tspan></tspan><tspan id="SvgjsTspan1282" dy="16" x="73"><tspan id="SvgjsTspan1283" style="text-decoration:;">（多周）</tspan></tspan></text></g></g><g id="SvgjsG1284" transform="translate(299,63)"><path id="SvgjsPath1285" d="M 0 16C 0 -5.333333333333333 32 -5.333333333333333 32 16C 32 37.333333333333336 0 37.333333333333336 0 16Z" stroke="rgba(50,50,50,1)" stroke-width="2" fill-opacity="1" fill="#000000"></path><g id="SvgjsG1286"><text id="SvgjsText1287" font-family="微软雅黑" text-anchor="middle" font-size="13px" width="12px" fill="#323232" font-weight="400" align="middle" anchor="middle" family="微软雅黑" size="13px" weight="400" font-style="" opacity="1" y="6.05" transform="rotate(0)"></text></g></g><g id="SvgjsG1288"><path id="SvgjsPath1289" d="M223 79L261 79L261 79L299 79" stroke="#323232" stroke-width="2" fill="none" marker-end="url(#SvgjsMarker1290)"></path></g><g id="SvgjsG1292" transform="translate(299,213.5)"><path id="SvgjsPath1293" d="M 0 16C 0 -5.333333333333333 32 -5.333333333333333 32 16C 32 37.333333333333336 0 37.333333333333336 0 16Z" stroke="rgba(50,50,50,1)" stroke-width="2" fill-opacity="1" fill="#000000"></path><g id="SvgjsG1294"><text id="SvgjsText1295" font-family="微软雅黑" text-anchor="middle" font-size="13px" width="12px" fill="#323232" font-weight="400" align="middle" anchor="middle" family="微软雅黑" size="13px" weight="400" font-style="" opacity="1" y="6.05" transform="rotate(0)"></text></g></g><g id="SvgjsG1296"><path id="SvgjsPath1297" d="M223 229.5L261 229.5L261 229.5L299 229.5" stroke="#323232" stroke-width="2" fill="none" marker-end="url(#SvgjsMarker1298)"></path></g><g id="SvgjsG1300"><path id="SvgjsPath1301" d="M315 95L315 154.25L315 154.25L315 213.5" stroke="#323232" stroke-width="2" fill="none" marker-end="url(#SvgjsMarker1302)"></path></g><g id="SvgjsG1304" transform="translate(299,364)"><path id="SvgjsPath1305" d="M 0 16C 0 -5.333333333333333 32 -5.333333333333333 32 16C 32 37.333333333333336 0 37.333333333333336 0 16Z" stroke="rgba(50,50,50,1)" stroke-width="2" fill-opacity="1" fill="#000000"></path><g id="SvgjsG1306"><text id="SvgjsText1307" font-family="微软雅黑" text-anchor="middle" font-size="13px" width="12px" fill="#323232" font-weight="400" align="middle" anchor="middle" family="微软雅黑" size="13px" weight="400" font-style="" opacity="1" y="6.05" transform="rotate(0)"></text></g></g><g id="SvgjsG1308"><path id="SvgjsPath1309" d="M315 245.5L315 304.75L315 304.75L315 364" stroke="#323232" stroke-width="2" fill="none" marker-end="url(#SvgjsMarker1310)"></path></g><g id="SvgjsG1312"><path id="SvgjsPath1313" d="M223 380L261 380L261 380L299 380" stroke="#323232" stroke-width="2" fill="none" marker-end="url(#SvgjsMarker1314)"></path></g><g id="SvgjsG1316" transform="translate(367,287)"><path id="SvgjsPath1317" d="M 0 0L 101 0L 101 35L 0 35Z" stroke="rgba(0,0,0,1)" stroke-width="2" fill-opacity="1" fill="#ccffcc"></path><g id="SvgjsG1318"><text id="SvgjsText1319" font-family="微软雅黑" text-anchor="middle" font-size="13px" width="81px" fill="#323232" font-weight="400" align="middle" anchor="middle" family="微软雅黑" size="13px" weight="400" font-style="" opacity="1" y="7.55" transform="rotate(0)"><tspan id="SvgjsTspan1320" dy="16" x="50.5"><tspan id="SvgjsTspan1321" style="text-decoration:;">feature1</tspan></tspan></text></g></g><g id="SvgjsG1322" transform="translate(574,287)"><path id="SvgjsPath1323" d="M 0 0L 101 0L 101 35L 0 35Z" stroke="rgba(0,0,0,1)" stroke-width="2" fill-opacity="1" fill="#ffcccc"></path><g id="SvgjsG1324"><text id="SvgjsText1325" font-family="微软雅黑" text-anchor="middle" font-size="13px" width="81px" fill="#323232" font-weight="400" align="middle" anchor="middle" family="微软雅黑" size="13px" weight="400" font-style="" opacity="1" y="7.55" transform="rotate(0)"><tspan id="SvgjsTspan1326" dy="16" x="50.5"><tspan id="SvgjsTspan1327" style="text-decoration:;">bugfix1</tspan></tspan></text></g></g><g id="SvgjsG1328"><path id="SvgjsPath1329" d="M331 229.5L349 229.5L349 304.5L367 304.5" stroke="#323232" stroke-width="2" fill="none" marker-end="url(#SvgjsMarker1330)"></path></g><g id="SvgjsG1332" transform="translate(506,213.5)"><path id="SvgjsPath1333" d="M 0 16C 0 -5.333333333333333 32 -5.333333333333333 32 16C 32 37.333333333333336 0 37.333333333333336 0 16Z" stroke="rgba(50,50,50,1)" stroke-width="2" fill-opacity="1" fill="#000000"></path><g id="SvgjsG1334"><text id="SvgjsText1335" font-family="微软雅黑" text-anchor="middle" font-size="13px" width="12px" fill="#323232" font-weight="400" align="middle" anchor="middle" family="微软雅黑" size="13px" weight="400" font-style="" opacity="1" y="6.05" transform="rotate(0)"></text></g></g><g id="SvgjsG1336"><path id="SvgjsPath1337" d="M468 304.5L487 304.5L487 229.5L506 229.5" stroke="#323232" stroke-width="2" fill="none" marker-end="url(#SvgjsMarker1338)"></path></g><g id="SvgjsG1340"><path id="SvgjsPath1341" d="M538 229.5L556 229.5L556 304.5L574 304.5" stroke="#323232" stroke-width="2" fill="none" marker-end="url(#SvgjsMarker1342)"></path></g><g id="SvgjsG1344" transform="translate(720,63)"><path id="SvgjsPath1345" d="M 0 16C 0 -5.333333333333333 32 -5.333333333333333 32 16C 32 37.333333333333336 0 37.333333333333336 0 16Z" stroke="rgba(50,50,50,1)" stroke-width="2" fill-opacity="1" fill="#000000"></path><g id="SvgjsG1346"><text id="SvgjsText1347" font-family="微软雅黑" text-anchor="middle" font-size="13px" width="12px" fill="#323232" font-weight="400" align="middle" anchor="middle" family="微软雅黑" size="13px" weight="400" font-style="" opacity="1" y="6.05" transform="rotate(0)"></text></g></g><g id="SvgjsG1348" transform="translate(720,213.5)"><path id="SvgjsPath1349" d="M 0 16C 0 -5.333333333333333 32 -5.333333333333333 32 16C 32 37.333333333333336 0 37.333333333333336 0 16Z" stroke="rgba(50,50,50,1)" stroke-width="2" fill-opacity="1" fill="#000000"></path><g id="SvgjsG1350"><text id="SvgjsText1351" font-family="微软雅黑" text-anchor="middle" font-size="13px" width="12px" fill="#323232" font-weight="400" align="middle" anchor="middle" family="微软雅黑" size="13px" weight="400" font-style="" opacity="1" y="6.05" transform="rotate(0)"></text></g></g><g id="SvgjsG1352"><path id="SvgjsPath1353" d="M675 304.5L697.5 304.5L697.5 229.5L720 229.5" stroke="#323232" stroke-width="2" fill="none" marker-end="url(#SvgjsMarker1354)"></path></g><g id="SvgjsG1356"><path id="SvgjsPath1357" d="M736 213.5L736 154.25L736 154.25L736 95" stroke="#323232" stroke-width="2" fill="none" marker-end="url(#SvgjsMarker1358)"></path></g><g id="SvgjsG1360"><path id="SvgjsPath1361" d="M331 79L525.5 79L525.5 79L720 79" stroke="#323232" stroke-width="2" fill="none" marker-end="url(#SvgjsMarker1362)"></path></g><g id="SvgjsG1364" transform="translate(388,124)"><path id="SvgjsPath1365" d="M 0 0L 287 0L 287 80L 0 80Z" stroke="none" fill="none"></path><g id="SvgjsG1366"><text id="SvgjsText1367" font-family="微软雅黑" text-anchor="start" font-size="13px" width="287px" fill="#323232" font-weight="400" align="middle" anchor="start" family="微软雅黑" size="13px" weight="400" font-style="" opacity="1" y="14.05" transform="rotate(0)"><tspan id="SvgjsTspan1368" dy="16" x="0"><tspan id="SvgjsTspan1369" style="text-decoration:;">rebase的效果使得每个feature和bugfix像一串羊</tspan></tspan><tspan id="SvgjsTspan1370" dy="16" x="0"><tspan id="SvgjsTspan1371" style="text-decoration:;">肉串。虽然实际上开发时在时间上重叠的，但是在</tspan></tspan><tspan id="SvgjsTspan1372" dy="16" x="0"><tspan id="SvgjsTspan1373" style="text-decoration:;">git历史里看是分离的先后串接关系。</tspan></tspan></text></g></g><g id="SvgjsG1374" transform="translate(696,25)"><path id="SvgjsPath1375" d="M 0 0L 80 0L 80 35L 0 35Z" stroke="none" fill="none"></path><g id="SvgjsG1376"><text id="SvgjsText1377" font-family="微软雅黑" text-anchor="middle" font-size="13px" width="80px" fill="#323232" font-weight="400" align="middle" anchor="middle" family="微软雅黑" size="13px" weight="400" font-style="" opacity="1" y="7.55" transform="rotate(0)"><tspan id="SvgjsTspan1378" dy="16" x="40"><tspan id="SvgjsTspan1379" style="text-decoration:;">tag v1.0.0</tspan></tspan></text></g></g><g id="SvgjsG1380" transform="translate(795,287)"><path id="SvgjsPath1381" d="M 0 0L 101 0L 101 35L 0 35Z" stroke="rgba(0,0,0,1)" stroke-width="2" fill-opacity="1" fill="#ccffcc"></path><g id="SvgjsG1382"><text id="SvgjsText1383" font-family="微软雅黑" text-anchor="middle" font-size="13px" width="81px" fill="#323232" font-weight="400" align="middle" anchor="middle" family="微软雅黑" size="13px" weight="400" font-style="" opacity="1" y="7.55" transform="rotate(0)"><tspan id="SvgjsTspan1384" dy="16" x="50.5"><tspan id="SvgjsTspan1385" style="text-decoration:;">feature2</tspan></tspan></text></g></g><g id="SvgjsG1386" transform="translate(1002,287)"><path id="SvgjsPath1387" d="M 0 0L 101 0L 101 35L 0 35Z" stroke="rgba(0,0,0,1)" stroke-width="2" fill-opacity="1" fill="#ffcccc"></path><g id="SvgjsG1388"><text id="SvgjsText1389" font-family="微软雅黑" text-anchor="middle" font-size="13px" width="81px" fill="#323232" font-weight="400" align="middle" anchor="middle" family="微软雅黑" size="13px" weight="400" font-style="" opacity="1" y="7.55" transform="rotate(0)"><tspan id="SvgjsTspan1390" dy="16" x="50.5"><tspan id="SvgjsTspan1391" style="text-decoration:;">bugfix2</tspan></tspan></text></g></g><g id="SvgjsG1392" transform="translate(934,213.5)"><path id="SvgjsPath1393" d="M 0 16C 0 -5.333333333333333 32 -5.333333333333333 32 16C 32 37.333333333333336 0 37.333333333333336 0 16Z" stroke="rgba(50,50,50,1)" stroke-width="2" fill-opacity="1" fill="#000000"></path><g id="SvgjsG1394"><text id="SvgjsText1395" font-family="微软雅黑" text-anchor="middle" font-size="13px" width="12px" fill="#323232" font-weight="400" align="middle" anchor="middle" family="微软雅黑" size="13px" weight="400" font-style="" opacity="1" y="6.05" transform="rotate(0)"></text></g></g><g id="SvgjsG1396"><path id="SvgjsPath1397" d="M896 304.5L915 304.5L915 229.5L934 229.5" stroke="#323232" stroke-width="2" fill="none" marker-end="url(#SvgjsMarker1398)"></path></g><g id="SvgjsG1400"><path id="SvgjsPath1401" d="M966 229.5L984 229.5L984 304.5L1002 304.5" stroke="#323232" stroke-width="2" fill="none" marker-end="url(#SvgjsMarker1402)"></path></g><g id="SvgjsG1404"><path id="SvgjsPath1405" d="M752 229.5L773.5 229.5L773.5 304.5L795 304.5" stroke="#323232" stroke-width="2" fill="none" marker-end="url(#SvgjsMarker1406)"></path></g><g id="SvgjsG1408" transform="translate(471.5,428)"><path id="SvgjsPath1409" d="M 0 0L 101 0L 101 35L 0 35Z" stroke="rgba(0,0,0,1)" stroke-width="2" fill-opacity="1" fill="#ffffcc"></path><g id="SvgjsG1410"><text id="SvgjsText1411" font-family="微软雅黑" text-anchor="middle" font-size="13px" width="81px" fill="#323232" font-weight="400" align="middle" anchor="middle" family="微软雅黑" size="13px" weight="400" font-style="" opacity="1" y="7.55" transform="rotate(0)"><tspan id="SvgjsTspan1412" dy="16" x="50.5"><tspan id="SvgjsTspan1413" style="text-decoration:;">refactor1</tspan></tspan></text></g></g><g id="SvgjsG1414"><path id="SvgjsPath1415" d="M331 380L401.25 380L401.25 445.5L471.5 445.5" stroke="#323232" stroke-width="2" fill="none" marker-end="url(#SvgjsMarker1416)"></path></g><g id="SvgjsG1418" transform="translate(899.5,428)"><path id="SvgjsPath1419" d="M 0 0L 101 0L 101 35L 0 35Z" stroke="rgba(0,0,0,1)" stroke-width="2" fill-opacity="1" fill="#ffffcc"></path><g id="SvgjsG1420"><text id="SvgjsText1421" font-family="微软雅黑" text-anchor="middle" font-size="13px" width="81px" fill="#323232" font-weight="400" align="middle" anchor="middle" family="微软雅黑" size="13px" weight="400" font-style="" opacity="1" y="7.55" transform="rotate(0)"><tspan id="SvgjsTspan1422" dy="16" x="50.5"><tspan id="SvgjsTspan1423" style="text-decoration:;">refactor2</tspan></tspan></text></g></g><g id="SvgjsG1424"><path id="SvgjsPath1425" d="M572.5 445.5L736 445.5L736 445.5L899.5 445.5" stroke="#323232" stroke-width="2" fill="none" marker-end="url(#SvgjsMarker1426)"></path></g><g id="SvgjsG1428" transform="translate(1146,213.5)"><path id="SvgjsPath1429" d="M 0 16C 0 -5.333333333333333 32 -5.333333333333333 32 16C 32 37.333333333333336 0 37.333333333333336 0 16Z" stroke-dasharray="10,6" stroke="rgba(50,50,50,1)" stroke-width="2" fill-opacity="1" fill="#ffffff"></path><g id="SvgjsG1430"><text id="SvgjsText1431" font-family="微软雅黑" text-anchor="middle" font-size="13px" width="12px" fill="#323232" font-weight="400" align="middle" anchor="middle" family="微软雅黑" size="13px" weight="400" font-style="" opacity="1" y="6.05" transform="rotate(0)"></text></g></g><g id="SvgjsG1432"><path id="SvgjsPath1433" d="M1103 304.5L1124.5 304.5L1124.5 229.5L1146 229.5" stroke="#323232" stroke-width="2" fill="none" marker-end="url(#SvgjsMarker1434)"></path></g><g id="SvgjsG1436" transform="translate(1244,63)"><path id="SvgjsPath1437" d="M 0 16C 0 -5.333333333333333 32 -5.333333333333333 32 16C 32 37.333333333333336 0 37.333333333333336 0 16Z" stroke="rgba(50,50,50,1)" stroke-width="2" fill-opacity="1" fill="#000000"></path><g id="SvgjsG1438"><text id="SvgjsText1439" font-family="微软雅黑" text-anchor="middle" font-size="13px" width="12px" fill="#323232" font-weight="400" align="middle" anchor="middle" family="微软雅黑" size="13px" weight="400" font-style="" opacity="1" y="6.05" transform="rotate(0)"></text></g></g><g id="SvgjsG1440"><path id="SvgjsPath1441" d="M752 79L998 79L998 79L1244 79" stroke="#323232" stroke-width="2" fill="none" marker-end="url(#SvgjsMarker1442)"></path></g><g id="SvgjsG1444"><path id="SvgjsPath1445" d="M1000.5 445.5L1162 445.5L1162 245.5" stroke-dasharray="8,5" stroke="#323232" stroke-width="2" fill="none" marker-end="url(#SvgjsMarker1446)"></path></g><g id="SvgjsG1448" transform="translate(1220,25)"><path id="SvgjsPath1449" d="M 0 0L 80 0L 80 35L 0 35Z" stroke="none" fill="none"></path><g id="SvgjsG1450"><text id="SvgjsText1451" font-family="微软雅黑" text-anchor="middle" font-size="13px" width="80px" fill="#323232" font-weight="400" align="middle" anchor="middle" family="微软雅黑" size="13px" weight="400" font-style="" opacity="1" y="7.55" transform="rotate(0)"><tspan id="SvgjsTspan1452" dy="16" x="40"><tspan id="SvgjsTspan1453" style="text-decoration:;">tag v2.0.0</tspan></tspan></text></g></g><g id="SvgjsG1454" transform="translate(896,364)"><path id="SvgjsPath1455" d="M 0 0L 260 0L 260 46L 0 46Z" stroke="none" fill="none"></path><g id="SvgjsG1456"><text id="SvgjsText1457" font-family="微软雅黑" text-anchor="start" font-size="13px" width="260px" fill="#323232" font-weight="400" align="middle" anchor="start" family="微软雅黑" size="13px" weight="400" font-style="" opacity="1" y="-2.95" transform="rotate(0)"><tspan id="SvgjsTspan1458" dy="16" x="0"><tspan id="SvgjsTspan1459" style="text-decoration:;">这条虚线是不存在的。用rebase相当于</tspan></tspan><tspan id="SvgjsTspan1460" dy="16" x="0"><tspan id="SvgjsTspan1461" style="text-decoration:;">refactor1和refactor2的改动是基于上图中的</tspan></tspan><tspan id="SvgjsTspan1462" dy="16" x="0"><tspan id="SvgjsTspan1463" style="text-decoration:;">虚线小圆点。</tspan></tspan></text></g></g><g id="SvgjsG1464" transform="translate(795,470)"><path id="SvgjsPath1465" d="M 0 0L 383 0L 383 59L 0 59Z" stroke="none" fill="none"></path><g id="SvgjsG1466"><text id="SvgjsText1467" font-family="微软雅黑" text-anchor="start" font-size="13px" width="383px" fill="#323232" font-weight="400" align="middle" anchor="start" family="微软雅黑" size="13px" weight="400" font-style="" opacity="1" y="11.55" transform="rotate(0)"><tspan id="SvgjsTspan1468" dy="16" x="0"><tspan id="SvgjsTspan1469" style="text-decoration:;">在重构期间也可以尽量拉取最新dev内容，这样在最后合回dev时</tspan></tspan><tspan id="SvgjsTspan1470" dy="16" x="0"><tspan id="SvgjsTspan1471" style="text-decoration:;">工作量就能减少很多。</tspan></tspan></text></g></g><g id="SvgjsG1472" transform="translate(1244,213.5)"><path id="SvgjsPath1473" d="M 0 16C 0 -5.333333333333333 32 -5.333333333333333 32 16C 32 37.333333333333336 0 37.333333333333336 0 16Z" stroke="rgba(50,50,50,1)" stroke-width="2" fill-opacity="1" fill="#000000"></path><g id="SvgjsG1474"><text id="SvgjsText1475" font-family="微软雅黑" text-anchor="middle" font-size="13px" width="12px" fill="#323232" font-weight="400" align="middle" anchor="middle" family="微软雅黑" size="13px" weight="400" font-style="" opacity="1" y="6.05" transform="rotate(0)"></text></g></g><g id="SvgjsG1476"><path id="SvgjsPath1477" d="M1178 229.5L1211 229.5L1211 229.5L1244 229.5" stroke="#323232" stroke-width="2" fill="none" marker-end="url(#SvgjsMarker1478)"></path></g><g id="SvgjsG1480"><path id="SvgjsPath1481" d="M1260 213.5L1260 154.25L1260 154.25L1260 95" stroke="#323232" stroke-width="2" fill="none" marker-end="url(#SvgjsMarker1482)"></path></g></svg>